%TF.GenerationSoftware,KiCad,Pcbnew,6.0.6-3a73a75311~116~ubuntu20.04.1*%
%TF.CreationDate,2022-07-28T19:13:06-04:00*%
%TF.ProjectId,pcb_coil_test,7063625f-636f-4696-9c5f-746573742e6b,rev?*%
%TF.SameCoordinates,Original*%
%TF.FileFunction,Soldermask,Top*%
%TF.FilePolarity,Negative*%
%FSLAX46Y46*%
G04 Gerber Fmt 4.6, Leading zero omitted, Abs format (unit mm)*
G04 Created by KiCad (PCBNEW 6.0.6-3a73a75311~116~ubuntu20.04.1) date 2022-07-28 19:13:06*
%MOMM*%
%LPD*%
G01*
G04 APERTURE LIST*
G04 Aperture macros list*
%AMRoundRect*
0 Rectangle with rounded corners*
0 $1 Rounding radius*
0 $2 $3 $4 $5 $6 $7 $8 $9 X,Y pos of 4 corners*
0 Add a 4 corners polygon primitive as box body*
4,1,4,$2,$3,$4,$5,$6,$7,$8,$9,$2,$3,0*
0 Add four circle primitives for the rounded corners*
1,1,$1+$1,$2,$3*
1,1,$1+$1,$4,$5*
1,1,$1+$1,$6,$7*
1,1,$1+$1,$8,$9*
0 Add four rect primitives between the rounded corners*
20,1,$1+$1,$2,$3,$4,$5,0*
20,1,$1+$1,$4,$5,$6,$7,0*
20,1,$1+$1,$6,$7,$8,$9,0*
20,1,$1+$1,$8,$9,$2,$3,0*%
G04 Aperture macros list end*
%ADD10C,2.800000*%
%ADD11R,1.800000X1.800000*%
%ADD12O,1.800000X1.800000*%
%ADD13C,1.600000*%
%ADD14R,1.600000X1.600000*%
%ADD15C,0.508000*%
%ADD16RoundRect,0.150000X0.825000X0.150000X-0.825000X0.150000X-0.825000X-0.150000X0.825000X-0.150000X0*%
G04 APERTURE END LIST*
D10*
%TO.C,TP1*%
X278130000Y-130175000D03*
%TD*%
D11*
%TO.C,D6*%
X265430000Y-126365001D03*
D12*
X265430000Y-136525001D03*
%TD*%
D11*
%TO.C,D5*%
X265430000Y-110490001D03*
D12*
X265430000Y-120650001D03*
%TD*%
D11*
%TO.C,D4*%
X257810000Y-126365000D03*
D12*
X257810000Y-136525000D03*
%TD*%
D11*
%TO.C,D3*%
X257810000Y-110490001D03*
D12*
X257810000Y-120650001D03*
%TD*%
D11*
%TO.C,D2*%
X250190000Y-126365000D03*
D12*
X250190000Y-136525000D03*
%TD*%
%TO.C,D1*%
X250190000Y-120650001D03*
D11*
X250190000Y-110490001D03*
%TD*%
D13*
%TO.C,C4*%
X288290000Y-114895000D03*
X288290000Y-109895000D03*
%TD*%
D14*
%TO.C,C3*%
X282004888Y-123190000D03*
D13*
X284504888Y-123190000D03*
%TD*%
%TO.C,C2*%
X272415000Y-115530000D03*
X272415000Y-110530000D03*
%TD*%
D14*
%TO.C,C1*%
X272415000Y-121984888D03*
D13*
X272415000Y-124484888D03*
%TD*%
D15*
%TO.C,L2*%
X226466400Y-121462800D03*
X228650800Y-121462800D03*
X227533200Y-112776000D03*
%TD*%
D16*
%TO.C,U1*%
X282510000Y-114935000D03*
X282510000Y-113665000D03*
X282510000Y-112395000D03*
X282510000Y-111125000D03*
X277560000Y-111125000D03*
X277560000Y-112395000D03*
X277560000Y-113665000D03*
X277560000Y-114935000D03*
%TD*%
D15*
%TO.C,L6*%
X207721200Y-101346000D03*
X208838800Y-110032800D03*
X206654400Y-110032800D03*
%TD*%
%TO.C,L5*%
X188163200Y-135636000D03*
X189280800Y-144322800D03*
X187096400Y-144322800D03*
%TD*%
%TO.C,L4*%
X227533200Y-135636000D03*
X228650800Y-144322800D03*
X226466400Y-144322800D03*
%TD*%
%TO.C,L3*%
X207721200Y-147066000D03*
X208838800Y-155752800D03*
X206654400Y-155752800D03*
%TD*%
%TO.C,L1*%
X187960000Y-112776000D03*
X189077600Y-121462800D03*
X186893200Y-121462800D03*
%TD*%
M02*
