M48
; DRILL file {KiCad 6.0.6-3a73a75311~116~ubuntu20.04.1} date Thu 28 Jul 2022 07:13:10 PM EDT
; FORMAT={-:-/ absolute / inch / decimal}
; #@! TF.CreationDate,2022-07-28T19:13:10-04:00
; #@! TF.GenerationSoftware,Kicad,Pcbnew,6.0.6-3a73a75311~116~ubuntu20.04.1
; #@! TF.FileFunction,Plated,1,2,PTH
FMAT,2
INCH
; #@! TA.AperFunction,Plated,PTH,ComponentDrill
T1C0.0150
; #@! TA.AperFunction,Plated,PTH,ViaDrill
T2C0.0157
; #@! TA.AperFunction,Plated,PTH,ComponentDrill
T3C0.0315
; #@! TA.AperFunction,Plated,PTH,ComponentDrill
T4C0.0354
; #@! TA.AperFunction,Plated,PTH,ComponentDrill
T5C0.0630
%
G90
G05
T1
X7.358Y-4.782
X7.366Y-5.682
X7.4Y-4.44
X7.408Y-5.34
X7.444Y-4.782
X7.452Y-5.682
X8.136Y-4.332
X8.136Y-6.132
X8.178Y-3.99
X8.178Y-5.79
X8.222Y-4.332
X8.222Y-6.132
X8.916Y-4.782
X8.916Y-5.682
X8.958Y-4.44
X8.958Y-5.34
X9.002Y-4.782
X9.002Y-5.682
T2
X7.95Y-5.075
X7.95Y-5.275
T3
X10.725Y-4.3516
X10.725Y-4.5484
X10.725Y-4.8026
X10.725Y-4.901
X11.1026Y-4.85
X11.201Y-4.85
X11.35Y-4.3266
X11.35Y-4.5234
T4
X9.85Y-4.35
X9.85Y-4.75
X9.85Y-4.975
X9.85Y-5.375
X10.15Y-4.35
X10.15Y-4.75
X10.15Y-4.975
X10.15Y-5.375
X10.45Y-4.35
X10.45Y-4.75
X10.45Y-4.975
X10.45Y-5.375
T5
X10.95Y-5.125
T0
M30
